<svg width="22" height="22" viewBox="0 0 22 22" fill="none" xmlns="http://www.w3.org/2000/svg">
<path d="M11.8476 18.711C12.1203 18.3327 12.6408 18.215 13.0533 18.4531C13.4659 18.6913 13.6246 19.2012 13.4333 19.6265L13.3903 19.71C13.148 20.1294 12.7997 20.4777 12.3804 20.7199C11.961 20.962 11.4847 21.0899 11.0004 21.09C10.516 21.09 10.0399 20.962 9.62039 20.7199C9.25322 20.5079 8.94051 20.2147 8.70579 19.8637L8.60965 19.71L8.56653 19.6265C8.37531 19.2012 8.53404 18.6913 8.94657 18.4531C9.35911 18.215 9.87956 18.3327 10.1522 18.711L10.2035 18.79L10.27 18.8907C10.3432 18.9861 10.4355 19.0664 10.5404 19.1269C10.6801 19.2075 10.839 19.25 11.0004 19.25C11.1618 19.2499 11.3206 19.2076 11.4604 19.1269C11.6001 19.0462 11.7157 18.9298 11.7964 18.79L11.8476 18.711Z" fill="#171A1F"/>
<path d="M15.5998 7.33001C15.5998 6.11018 15.1155 4.94031 14.253 4.07767C13.3903 3.215 12.2198 2.73001 10.9998 2.73001C9.77989 2.73008 8.61006 3.21506 7.74745 4.07767C6.88485 4.94032 6.39979 6.11008 6.39979 7.33001L6.3962 7.72892C6.35681 9.68384 6.02591 11.0812 5.51034 12.1726C4.96711 13.3225 4.24625 14.0649 3.64069 14.69L18.3598 14.69C17.753 14.0645 17.0331 13.3218 16.4902 12.1726C15.94 11.0082 15.5998 9.49579 15.5998 7.33001ZM17.4398 7.33001C17.4398 9.30314 17.7488 10.5306 18.1532 11.3865C18.4571 12.0299 18.8318 12.5025 19.2582 12.965L19.7012 13.4304L19.7209 13.452C19.9609 13.7157 20.1193 14.0433 20.1764 14.3953C20.2335 14.7471 20.1876 15.108 20.0435 15.4339C19.8992 15.7599 19.663 16.0373 19.3643 16.2318C19.1027 16.402 18.8026 16.5032 18.4928 16.5255L18.3598 16.53L3.63979 16.53C3.28318 16.5297 2.934 16.4257 2.63534 16.2308C2.33667 16.036 2.10088 15.7584 1.95702 15.4321C1.8132 15.1059 1.76736 14.7446 1.82495 14.3927C1.88256 14.0409 2.04115 13.7135 2.28135 13.4501L2.30022 13.4295L2.74315 12.965C3.16895 12.5027 3.54248 12.0299 3.84643 11.3865C4.22547 10.5841 4.52076 9.45512 4.5562 7.69119L4.55979 7.33001C4.55979 5.62202 5.23877 3.98357 6.44651 2.77583C7.65416 1.56837 9.29202 0.890079 10.9998 0.890015C12.7077 0.890015 14.3462 1.56817 15.554 2.77583C16.7617 3.98357 17.4398 5.62202 17.4398 7.33001Z" fill="#171A1F"/>
</svg>
