<svg width="24" height="24" viewBox="0 0 24 24" fill="none" xmlns="http://www.w3.org/2000/svg">
<g clip-path="url(#clip0_1_289)">
<path d="M11.3928 16.0787C11.1811 16.5885 10.5961 16.8301 10.0862 16.6187C9.57617 16.4071 9.33373 15.8221 9.54516 15.3121L11.3928 16.0787ZM9.97192 14.2965C10.2124 13.8502 10.7573 13.6497 11.2356 13.8482C11.7138 14.0468 11.9559 14.5738 11.8098 15.0592L11.7756 15.1549L11.3928 16.0787L9.54516 15.3121L9.92797 14.3892L9.97192 14.2965Z" fill="#565D6D"/>
<path d="M10.0862 7.38113C10.5644 7.18298 11.1084 7.38326 11.3489 7.82937L11.3928 7.92215L11.7756 8.845L11.8098 8.9407C11.956 9.42611 11.7138 9.95305 11.2356 10.1516C10.7255 10.3633 10.1397 10.1216 9.92798 9.6116L9.54516 8.68777L9.51098 8.59207C9.36486 8.10662 9.60787 7.57961 10.0862 7.38113Z" fill="#565D6D"/>
<path d="M12.7661 13.8482C13.2445 13.6505 13.7878 13.8512 14.0279 14.2974L14.0718 14.3902L14.4536 15.314L14.4888 15.4107C14.6339 15.8962 14.39 16.4219 13.9116 16.6197C13.4332 16.8174 12.8899 16.6169 12.6499 16.1705L12.606 16.0777L12.2241 15.1539L12.19 15.0572C12.0448 14.5717 12.2877 14.046 12.7661 13.8482Z" fill="#565D6D"/>
<path d="M14.0718 9.61165C13.8601 10.1215 13.2751 10.363 12.7651 10.1517C12.2551 9.94006 12.0127 9.35508 12.2241 8.84505L14.0718 9.61165ZM12.6509 7.82942C12.8914 7.38311 13.4362 7.1827 13.9145 7.38118C14.3927 7.57973 14.6349 8.10673 14.4888 8.59212L14.4546 8.68782L14.0718 9.61165L12.2241 8.84505L12.6069 7.92219L12.6509 7.82942Z" fill="#565D6D"/>
<path d="M15.4077 9.51102C15.8932 9.36481 16.4201 9.60786 16.6186 10.0862C16.83 10.5961 16.5884 11.1812 16.0786 11.3929L15.1548 11.7757C14.6448 11.987 14.0598 11.7455 13.8481 11.2356C13.6365 10.7255 13.879 10.1397 14.3891 9.92801L15.312 9.5452L15.4077 9.51102Z" fill="#565D6D"/>
<path d="M13.8482 12.7651C14.0466 12.2868 14.5737 12.0438 15.0591 12.1899L15.1548 12.2241L16.0786 12.6069L16.1704 12.6509C16.6168 12.8913 16.8172 13.4362 16.6187 13.9145C16.4069 14.4244 15.822 14.666 15.312 14.4546L14.3892 14.0718L14.2964 14.0278C13.8503 13.7874 13.65 13.2433 13.8482 12.7651Z" fill="#565D6D"/>
<path d="M7.41067 1.32638C8.22552 0.973574 9.13459 0.902449 9.99465 1.12325C10.7739 1.3234 11.4714 1.75468 12.0005 2.35568C12.1709 2.16234 12.3592 1.98429 12.565 1.82638C13.0516 1.45295 13.6176 1.19611 14.2193 1.07638C14.821 0.956674 15.443 0.977145 16.0357 1.13595C16.6281 1.29474 17.176 1.58799 17.6372 1.99239C18.0985 2.39692 18.461 2.90215 18.6958 3.46896C18.9306 4.03583 19.0319 4.64967 18.9917 5.26193C18.9515 5.87407 18.7711 6.46894 18.4644 7.00021C18.1883 7.47838 17.5764 7.64234 17.0982 7.36642C16.62 7.0903 16.456 6.47845 16.732 6.00021C16.8853 5.73463 16.9755 5.43707 16.9956 5.13107C17.0157 4.825 16.9655 4.51797 16.8482 4.23458C16.7308 3.95119 16.5495 3.69856 16.3189 3.4963C16.0883 3.29408 15.8143 3.14701 15.5181 3.06759C15.2218 2.98819 14.9108 2.97844 14.6099 3.03829C14.309 3.09814 14.0261 3.22657 13.7827 3.41329C13.5394 3.60005 13.3422 3.8403 13.2066 4.11544C13.0709 4.39059 13.0005 4.69342 13.0005 5.00021C12.9999 5.55218 12.5515 6.00044 11.9995 6.00021C11.4475 5.99992 11.0006 5.55219 11.0005 5.00021C11.0009 4.55611 10.8526 4.12372 10.5806 3.77267C10.3085 3.4216 9.92776 3.17026 9.49758 3.05978C9.06753 2.94935 8.61304 2.9859 8.20559 3.16232C7.84904 3.31675 7.5458 3.57082 7.33254 3.89278L7.24661 4.03536C7.07072 4.35552 6.98609 4.71825 7.00149 5.08321C7.02119 5.55459 6.70835 5.97526 6.25149 6.09298C5.8106 6.20639 5.40092 6.41904 5.05422 6.71407C4.70762 7.00903 4.43299 7.37918 4.25051 7.7961C4.06804 8.21315 3.98291 8.66647 4.00149 9.1213C4.02008 9.57616 4.14105 10.0213 4.35696 10.4221L4.4009 10.5139C4.59524 10.9821 4.40752 11.5309 3.95168 11.7766C3.46547 12.0385 2.85815 11.8565 2.59621 11.3703L2.46926 11.1164C2.18891 10.5168 2.02961 9.8666 2.00246 9.20333C1.97148 8.44523 2.11337 7.68946 2.4175 6.99435C2.72164 6.29929 3.18053 5.68233 3.75832 5.19064C4.14549 4.86122 4.58015 4.59517 5.04543 4.39767C5.11574 3.935 5.26642 3.48613 5.49368 3.07247L5.66457 2.78829C6.09109 2.14426 6.6975 1.63528 7.41067 1.32638Z" fill="#565D6D"/>
<path d="M17.0293 4.87597C17.1582 4.37467 17.6455 4.05995 18.1465 4.13574L18.2471 4.15624L18.5205 4.23535C19.1511 4.43642 19.7367 4.76123 20.2422 5.1914C20.8199 5.68308 21.2779 6.30012 21.582 6.99511C21.8861 7.69015 22.028 8.44512 21.9971 9.20312C21.9661 9.96118 21.7631 10.7022 21.4033 11.3701L21.3506 11.458C21.0663 11.8776 20.5046 12.0219 20.0488 11.7764C19.5626 11.5145 19.3807 10.9081 19.6426 10.4219L19.7187 10.2695C19.887 9.90963 19.9827 9.51919 19.999 9.12109C20.0175 8.66633 19.9324 8.21286 19.75 7.79589C19.5675 7.37903 19.2928 7.00879 18.9463 6.71386C18.643 6.45578 18.2914 6.26127 17.9131 6.14062L17.749 6.09374L17.6513 6.06347C17.1756 5.88838 16.9004 5.37747 17.0293 4.87597Z" fill="#565D6D"/>
<path d="M18.5782 9.91805C18.773 9.43842 19.2979 9.19192 19.7843 9.33407L19.881 9.36727L20.0802 9.45321C21.065 9.90377 21.879 10.6635 22.3966 11.6192C22.9485 12.6384 23.1288 13.8175 22.9073 14.9552C22.6859 16.093 22.0758 17.1187 21.1818 17.8565C20.2877 18.5942 19.165 18.9986 18.006 19.0001C17.4538 19.0006 17.0057 18.5532 17.005 18.0011C17.0044 17.4489 17.4518 17.0008 18.004 17.0001C18.6994 16.9991 19.3729 16.7562 19.9093 16.3136C20.4456 15.8709 20.8116 15.2559 20.9445 14.5733C21.0773 13.8907 20.969 13.1829 20.6378 12.5714C20.348 12.0363 19.9036 11.6033 19.3654 11.3282L19.129 11.2208L19.0363 11.1768C18.5884 10.9397 18.3837 10.3977 18.5782 9.91805Z" fill="#565D6D"/>
<path d="M4.16213 16.4918C4.70964 16.5636 5.09519 17.0654 5.02346 17.6129L5.001 17.8717C4.97453 18.4742 5.13036 19.073 5.45119 19.5884C5.81811 20.1777 6.37865 20.6216 7.03615 20.8443C7.69344 21.0669 8.40736 21.055 9.05666 20.8101C9.70615 20.5651 10.2511 20.1021 10.5977 19.5006L10.5987 19.4986L10.6738 19.3834C10.8584 19.1294 11.103 18.9819 11.3028 18.9C11.5364 18.8042 11.7801 18.7672 12 18.7672C12.22 18.7672 12.4636 18.8042 12.6973 18.9C12.8971 18.9819 13.1417 19.1293 13.3262 19.3834L13.4014 19.4986L13.4024 19.5006L13.542 19.7193C13.8872 20.214 14.3743 20.5957 14.9424 20.8101C15.5918 21.0552 16.3065 21.0669 16.9639 20.8443C17.6212 20.6218 18.1809 20.1784 18.5479 19.5894C18.8691 19.0738 19.0255 18.4745 18.999 17.8717L18.9766 17.6138L18.9688 17.5113C18.9543 17.005 19.3249 16.5601 19.8379 16.4927C20.3513 16.4256 20.8252 16.7601 20.9414 17.2535L20.96 17.3541L20.9834 17.5699C21.077 18.6463 20.8195 19.7267 20.2461 20.647C19.6345 21.6288 18.701 22.3679 17.6055 22.7388C16.5098 23.1098 15.3187 23.0896 14.2363 22.6812C13.3419 22.3437 12.568 21.7574 12 20.9986C11.4319 21.7576 10.6574 22.3436 9.76271 22.6812C8.68041 23.0895 7.4902 23.1098 6.39455 22.7388C5.29877 22.3677 4.36546 21.6281 3.75392 20.6461C3.14243 19.664 2.88964 18.5002 3.04006 17.3531L3.05861 17.2525C3.17483 16.759 3.64863 16.4244 4.16213 16.4918Z" fill="#565D6D"/>
<path d="M4.22232 9.33008C4.70903 9.18882 5.23354 9.43693 5.4274 9.91699C5.63387 10.429 5.38658 11.012 4.87466 11.2188L4.63736 11.3262C4.09787 11.6006 3.65175 12.0329 3.36099 12.5684C3.02865 13.1805 2.92034 13.8896 3.05337 14.5732C3.18645 15.2568 3.55296 15.8727 4.09048 16.3154C4.62809 16.7583 5.30316 17.0004 5.99966 17C6.55168 16.9998 6.99912 17.447 6.99966 17.999C6.99997 18.5513 6.55286 18.9996 6.00064 19C4.83987 19.0006 3.71498 18.5973 2.819 17.8594C1.923 17.1213 1.31123 16.0945 1.08951 14.9551C0.867802 13.8157 1.04936 12.6344 1.60318 11.6143C2.15707 10.5941 3.04925 9.79795 4.12564 9.36328L4.22232 9.33008Z" fill="#565D6D"/>
<path d="M5.95996 4.12602C6.47737 4.10427 6.91901 4.47966 6.99121 4.98149L7.00098 5.08305L7.02539 5.32329C7.05145 5.4818 7.09706 5.63649 7.16016 5.78422L7.26758 6.00004L7.31445 6.09086C7.52237 6.55304 7.35058 7.10718 6.90234 7.36626C6.454 7.62526 5.88837 7.49709 5.5918 7.08598L5.53613 7.00004L5.42188 6.78715C5.20605 6.35544 5.06992 5.88837 5.02051 5.40825L5.00293 5.16704L5.00391 5.0645C5.03398 4.55866 5.44275 4.14781 5.95996 4.12602Z" fill="#565D6D"/>
<path d="M7.38113 10.0862C7.57961 9.60787 8.10662 9.36486 8.59207 9.51098L8.68777 9.54516L9.6116 9.92798L9.7034 9.97192C10.1498 10.2124 10.3501 10.7572 10.1516 11.2356C9.93991 11.7454 9.35496 11.9871 8.845 11.7756L7.92215 11.3928L7.82937 11.3489C7.38326 11.1084 7.18298 10.5644 7.38113 10.0862Z" fill="#565D6D"/>
<path d="M8.94078 12.19C9.42627 12.0438 9.95323 12.2868 10.1517 12.7652C10.3631 13.2751 10.1215 13.8601 9.61168 14.0718L8.68785 14.4546C8.17791 14.666 7.59291 14.4244 7.38121 13.9146C7.16954 13.4045 7.41212 12.8186 7.92223 12.607L8.84508 12.2242L8.94078 12.19Z" fill="#565D6D"/>
<path d="M14 12C14 10.8954 13.1046 10 12 10C10.8954 10 10 10.8954 10 12C10 13.1046 10.8954 14 12 14C13.1046 14 14 13.1046 14 12ZM16 12C16 14.2091 14.2091 16 12 16C9.79086 16 8 14.2091 8 12C8 9.79086 9.79086 8 12 8C14.2091 8 16 9.79086 16 12Z" fill="#565D6D"/>
</g>
<defs>
<clipPath id="clip0_1_289">
<rect width="24" height="24" fill="white"/>
</clipPath>
</defs>
</svg>
