<svg width="390" height="40" viewBox="0 0 390 40" fill="none" xmlns="http://www.w3.org/2000/svg">
<rect width="390" height="40" stroke="white"/>
<rect width="70" height="40" stroke="#BCC1CA"/>
<path d="M32.8364 16.7856C30.6272 16.7856 29.0533 18.2974 29.0533 20.3673V20.3815C29.0533 22.3171 30.4225 23.7442 32.3777 23.7442C33.7751 23.7442 34.6645 23.0307 35.0386 22.2253H35.1797C35.1797 22.303 35.1726 22.3807 35.1726 22.4584C35.095 24.4082 34.4104 25.9907 32.7941 25.9907C31.8977 25.9907 31.2696 25.5244 31.0013 24.8109L30.9801 24.7403H29.1873L29.2015 24.818C29.5261 26.3792 30.9237 27.4884 32.7941 27.4884C35.3562 27.4884 36.9019 25.4538 36.9019 22.0204V22.0063C36.9019 18.3328 35.0103 16.7856 32.8364 16.7856ZM32.8294 22.3454C31.6718 22.3454 30.832 21.4977 30.832 20.3179V20.3038C30.832 19.1664 31.7282 18.2692 32.8505 18.2692C33.9798 18.2692 34.8621 19.1805 34.8621 20.3461V20.3603C34.8621 21.5118 33.9798 22.3454 32.8294 22.3454Z" fill="#171A1F"/>
<path d="M39.7632 20.6287C40.4125 20.6287 40.8854 20.1342 40.8854 19.5125C40.8854 18.8838 40.4125 18.3963 39.7632 18.3963C39.1209 18.3963 38.6409 18.8838 38.6409 19.5125C38.6409 20.1342 39.1209 20.6287 39.7632 20.6287ZM39.7632 25.8706C40.4125 25.8706 40.8854 25.3831 40.8854 24.7544C40.8854 24.1257 40.4125 23.6382 39.7632 23.6382C39.1209 23.6382 38.6409 24.1257 38.6409 24.7544C38.6409 25.3831 39.1209 25.8706 39.7632 25.8706Z" fill="#171A1F"/>
<path d="M47.588 27.234H49.3313V25.2772H50.7006V23.7724H49.3313V17.04H46.755C45.3717 19.1452 43.9248 21.4906 42.6049 23.7866V25.2772H47.588V27.234ZM44.2988 23.8148V23.7088C45.2869 21.978 46.4657 20.0918 47.5102 18.4953H47.6161V23.8148H44.2988Z" fill="#171A1F"/>
<path d="M54.5904 27.234H56.4115V17.04H54.5975L51.9366 18.9121V20.6287L54.4704 18.8343H54.5904V27.234Z" fill="#171A1F"/>
<rect x="294" width="96" height="40" stroke="#BCC1CA"/>
<path opacity="0.35" d="M349.053 20.1702C349.053 18.2372 350.62 16.6702 352.553 16.6702H365.83C367.763 16.6702 369.33 18.2372 369.33 20.1702V23.234C369.33 25.167 367.763 26.734 365.83 26.734H352.553C350.62 26.734 349.053 25.167 349.053 23.234V20.1702Z" stroke="#171A1F" stroke-linecap="round"/>
<path opacity="0.4" d="M370.681 20.4255V24.0173C371.403 23.7131 371.873 23.0054 371.873 22.2214C371.873 21.4374 371.403 20.7297 370.681 20.4255Z" fill="#171A1F"/>
<path d="M350.255 19.8723C350.255 18.7677 351.151 17.8723 352.255 17.8723H366.128C367.232 17.8723 368.128 18.7677 368.128 19.8723V23.5319C368.128 24.6364 367.232 25.5319 366.128 25.5319H352.255C351.151 25.5319 350.255 24.6364 350.255 23.5319V19.8723Z" fill="#171A1F"/>
<path fill-rule="evenodd" clip-rule="evenodd" d="M335.362 19.2235C337.461 19.2236 339.48 20.0469 341.002 21.5233C341.116 21.6373 341.299 21.6358 341.412 21.5201L342.507 20.3919C342.564 20.3332 342.596 20.2537 342.596 20.1709C342.595 20.0882 342.562 20.009 342.505 19.951C338.512 16.0448 332.212 16.0448 328.219 19.951C328.161 20.009 328.128 20.0881 328.128 20.1708C328.127 20.2536 328.159 20.3332 328.216 20.3919L329.311 21.5201C329.424 21.636 329.607 21.6375 329.722 21.5233C331.243 20.0468 333.263 19.2235 335.362 19.2235ZM335.392 22.6293C336.546 22.6292 337.658 23.0668 338.513 23.8571C338.628 23.9692 338.811 23.9668 338.923 23.8516L340.017 22.7234C340.075 22.6643 340.107 22.584 340.106 22.5006C340.105 22.4171 340.071 22.3375 340.013 22.2796C337.409 19.8076 333.377 19.8076 330.774 22.2796C330.715 22.3375 330.682 22.4172 330.681 22.5006C330.68 22.5841 330.712 22.6643 330.77 22.7234L331.863 23.8516C331.976 23.9668 332.158 23.9692 332.274 23.8571C333.128 23.0674 334.24 22.6298 335.392 22.6293ZM337.617 24.8313C337.618 24.915 337.586 24.9956 337.528 25.0542L335.635 27.0033C335.58 27.0606 335.504 27.0929 335.425 27.0929C335.347 27.0929 335.271 27.0606 335.215 27.0033L333.323 25.0542C333.264 24.9956 333.232 24.9149 333.234 24.8312C333.236 24.7476 333.271 24.6684 333.332 24.6123C334.541 23.569 336.31 23.569 337.519 24.6123C337.58 24.6684 337.615 24.7476 337.617 24.8313Z" fill="#171A1F"/>
<path d="M314.511 19.5744C314.511 19.1044 314.892 18.7234 315.362 18.7234H316.213C316.683 18.7234 317.064 19.1044 317.064 19.5744V26.3829C317.064 26.8531 316.683 27.234 316.213 27.234H315.362C314.892 27.234 314.511 26.8531 314.511 26.3829V19.5744Z" fill="#171A1F"/>
<path d="M318.766 17.8723C318.766 17.4023 319.147 17.0212 319.617 17.0212H320.468C320.938 17.0212 321.319 17.4023 321.319 17.8723V26.3829C321.319 26.853 320.938 27.234 320.468 27.234H319.617C319.147 27.234 318.766 26.853 318.766 26.3829V17.8723Z" fill="#171A1F"/>
<path d="M310.255 22.5531C310.255 22.0831 310.636 21.7021 311.106 21.7021H311.957C312.428 21.7021 312.809 22.0831 312.809 22.5531V26.3829C312.809 26.853 312.428 27.234 311.957 27.234H311.106C310.636 27.234 310.255 26.853 310.255 26.3829V22.5531Z" fill="#171A1F"/>
<path d="M306 24.6808C306 24.2108 306.381 23.8297 306.851 23.8297H307.702C308.172 23.8297 308.553 24.2108 308.553 24.6808V26.3829C308.553 26.853 308.172 27.234 307.702 27.234H306.851C306.381 27.234 306 26.853 306 26.3829V24.6808Z" fill="#171A1F"/>
</svg>
