<svg width="28" height="28" viewBox="0 0 28 28" fill="none" xmlns="http://www.w3.org/2000/svg">
<rect width="28" height="28" stroke="white"/>
<path d="M11.0184 18.7859C11.2471 17.9324 12.1244 17.4259 12.9779 17.6546C13.8315 17.8833 14.338 18.7606 14.1093 19.6141L12.8983 24.1337C12.7696 24.6138 12.2761 24.8987 11.796 24.7701L10.4437 24.4077C9.96366 24.2791 9.67873 23.7856 9.80738 23.3055L11.0184 18.7859Z" fill="#646AE8"/>
<path d="M16.6062 16.5468C17.231 15.922 18.2442 15.922 18.869 16.5468L22.2783 19.9561C22.6298 20.3076 22.6298 20.8775 22.2783 21.2289L21.2884 22.2188C20.9369 22.5703 20.3671 22.5703 20.0156 22.2188L16.6062 18.8095C15.9814 18.1847 15.9814 17.1717 16.6062 16.5468Z" fill="#646AE8"/>
<path d="M8.65205 13.6918C9.50559 13.4631 10.3829 13.9697 10.6116 14.8232C10.8403 15.6767 10.3338 16.5541 9.48028 16.7828L4.66934 18.0719C4.18922 18.2005 3.69571 17.9156 3.56706 17.4355L3.20472 16.0832C3.07607 15.6031 3.36099 15.1096 3.84111 14.981L8.65205 13.6918Z" fill="#646AE8"/>
<path d="M18.1033 1.21209C18.5834 1.34074 18.8683 1.83424 18.7397 2.31436L15.4546 14.5743C15.2259 15.4278 14.3486 15.9343 13.495 15.7057C12.6415 15.477 12.135 14.5996 12.3636 13.7461L15.6486 1.48614C15.7773 1.00602 16.2708 0.721091 16.7509 0.849736L18.1033 1.21209Z" fill="#646AE8"/>
<path d="M24.9141 11.7148C25.0427 12.1949 24.7578 12.6884 24.2777 12.8171L19.5286 14.0895C18.6751 14.3182 17.7978 13.8117 17.5691 12.9582C17.3404 12.1046 17.8469 11.2273 18.7004 10.9986L23.4495 9.72614C23.9296 9.5975 24.4231 9.88242 24.5517 10.3625L24.9141 11.7148Z" fill="#646AE8"/>
<path d="M11.4963 9.17421C12.1212 9.79905 12.1212 10.812 11.4963 11.4369C10.8715 12.0617 9.85844 12.0617 9.2336 11.4369L3.59783 5.80114C3.24636 5.44967 3.24636 4.87982 3.59783 4.52835L4.58773 3.53844C4.93921 3.18697 5.50905 3.18697 5.86053 3.53844L11.4963 9.17421Z" fill="#646AE8"/>
</svg>
