<svg width="32" height="32" viewBox="0 0 32 32" fill="none" xmlns="http://www.w3.org/2000/svg">
<path d="M26.6387 13.34C26.6387 9.62855 25.895 7.18194 24.9619 5.06914C23.9838 6.02129 22.9341 6.74347 21.5629 7.33559C19.8698 8.06659 17.7134 8.58743 14.6791 9.19291L13.3244 9.45918C13.3151 9.46097 13.3052 9.46277 13.2958 9.46437C11.3229 9.80156 9.54884 10.8677 8.3252 12.4517C7.10158 14.0357 6.51797 16.0217 6.68997 18.0159C6.86214 20.0101 7.77682 21.868 9.25386 23.219C10.731 24.57 12.663 25.3161 14.6647 25.31H14.6687L15.2506 25.2945C21.2533 24.971 26.6387 19.692 26.6387 13.34ZM29.2987 13.34C29.2987 21.4124 22.3231 27.9671 14.6713 27.9688L14.6726 27.97L14.6699 27.9688L14.6687 27.97C12.001 27.9772 9.4275 26.982 7.45887 25.1815C5.48958 23.3803 4.26872 20.9047 4.03907 18.2457C3.8095 15.5866 4.58814 12.9378 6.21979 10.8255C7.84566 8.72082 10.2007 7.30197 12.8204 6.84723L14.1803 6.58098C17.1899 5.97918 19.0882 5.50691 20.5082 4.89379C22.0388 4.2329 23.04 3.39441 24.2735 1.86493L24.3865 1.74153C24.6679 1.47077 25.0576 1.33535 25.4516 1.37787C25.9014 1.42659 26.2961 1.70052 26.4984 2.10521L27.0127 3.15596C28.2055 5.66452 29.2987 8.63697 29.2987 13.34Z" fill="#636AE8"/>
<path d="M1.35501 27.985C1.35501 23.3497 4.27465 19.6736 9.18305 18.7009L9.72725 18.5788C11.003 18.2607 12.3034 17.7165 13.4575 17.097C14.7865 16.3834 15.8313 15.618 16.3747 15.0747L16.4759 14.9837C16.9983 14.5577 17.7684 14.5878 18.2553 15.0747C18.7422 15.5616 18.7723 16.3317 18.3463 16.8541L18.2553 16.9553C17.4689 17.7419 16.1862 18.652 14.7161 19.4414C13.4204 20.1369 11.9088 20.7764 10.3637 21.161L9.69998 21.3091C6.01658 22.0388 4.01501 24.6403 4.01501 27.985C4.01501 28.7196 3.41954 29.315 2.68501 29.315C1.95048 29.315 1.35501 28.7196 1.35501 27.985Z" fill="#636AE8"/>
</svg>
