<svg width="20" height="20" viewBox="0 0 20 20" fill="none" xmlns="http://www.w3.org/2000/svg">
<path d="M16.64 10.845C16.64 10.3866 16.2684 10.015 15.81 10.015L4.18995 10.015C3.73156 10.015 3.35995 10.3866 3.35995 10.845L3.35995 16.655C3.35995 17.1134 3.73156 17.485 4.18995 17.485L15.81 17.485C16.2684 17.485 16.64 17.1134 16.64 16.655V10.845ZM18.3 16.655C18.3 18.0302 17.1852 19.145 15.81 19.145L4.18995 19.145C2.81477 19.145 1.69995 18.0302 1.69995 16.655L1.69995 10.845C1.69995 9.46977 2.81477 8.355 4.18995 8.355L15.81 8.355C17.1852 8.355 18.3 9.46977 18.3 10.845L18.3 16.655Z" fill="#565D6D"/>
<path d="M13.3199 9.155V5.835C13.3199 4.95447 12.9699 4.11027 12.3472 3.48766C11.7246 2.86503 10.8804 2.515 9.9999 2.515C9.11935 2.515 8.27517 2.86503 7.65256 3.48766C7.02993 4.11027 6.6799 4.95447 6.6799 5.835L6.6799 9.155C6.6799 9.6134 6.30829 9.985 5.8499 9.985C5.39151 9.985 5.0199 9.6134 5.0199 9.155L5.0199 5.835C5.0199 4.51422 5.54495 3.24791 6.47888 2.31398C7.41281 1.38005 8.67912 0.854996 9.9999 0.854996C11.3207 0.854996 12.587 1.38005 13.5209 2.31398C14.4548 3.24791 14.9799 4.51422 14.9799 5.835V9.155C14.9799 9.6134 14.6083 9.985 14.1499 9.985C13.6915 9.985 13.3199 9.6134 13.3199 9.155Z" fill="#565D6D"/>
</svg>
