<svg width="32" height="32" viewBox="0 0 32 32" fill="none" xmlns="http://www.w3.org/2000/svg">
<path d="M10.5852 2.70387C11.1217 2.66574 11.6291 2.95396 11.8697 3.4351L16.3636 12.4243L21.7097 7.07962L21.8383 6.96663C22.1528 6.72409 22.5627 6.63253 22.9552 6.72504C23.4037 6.83091 23.7653 7.16206 23.9111 7.59915L30.5611 27.5492C30.6963 27.9547 30.6293 28.4012 30.3793 28.7479C30.1294 29.0948 29.7274 29.3 29.3 29.3L2.69998 29.3C2.27247 29.3 1.87063 29.0948 1.62065 28.7479C1.37068 28.4012 1.30362 27.9547 1.43882 27.5492L9.41882 3.60915L9.49545 3.42602C9.70481 3.01516 10.1158 2.73742 10.5852 2.70387ZM4.54431 26.64L27.4557 26.64L22.0681 10.4813L16.9403 15.6103C16.6381 15.9126 16.2089 16.0515 15.7869 15.9831C15.365 15.9146 15.0014 15.6472 14.8103 15.2648L10.9255 7.49525L4.54431 26.64Z" fill="#636AE8"/>
</svg>
