<svg width="24" height="24" viewBox="0 0 24 24" fill="none" xmlns="http://www.w3.org/2000/svg">
<path d="M6.81104 10.9526L6.89405 11.2094C7.03539 11.7268 7.03538 12.2731 6.89405 12.7905L6.81104 13.0473L4.39795 19.5219L20.3276 11.9995L4.39698 4.477L6.81104 10.9526ZM23.0005 12.0004C23.0004 12.2844 22.919 12.5623 22.7671 12.8022C22.6341 13.0123 22.4516 13.1857 22.2358 13.3071L22.1411 13.3559L4.14893 21.851L4.14991 21.852C3.87956 21.983 3.57603 22.0295 3.27881 21.9858C2.98153 21.9421 2.70412 21.8102 2.48291 21.6069C2.26167 21.4035 2.10709 21.1378 2.03858 20.8452C1.97012 20.5527 1.99128 20.2466 2.09912 19.9663L4.93701 12.3491L4.96436 12.2631C5.01137 12.0908 5.01138 11.9091 4.96436 11.7368L4.93701 11.6508L2.09815 4.0356L2.06201 3.92915C1.98613 3.67828 1.97671 3.41123 2.03662 3.15474L2.0669 3.04536C2.14561 2.79554 2.28899 2.57006 2.48291 2.39204L2.56787 2.3188C2.77364 2.15658 3.0192 2.05107 3.27979 2.01314L3.39209 2.00142C3.65356 1.98331 3.91612 2.03334 4.15283 2.14888L4.15186 2.14986L22.1411 10.644L22.2358 10.6928C22.4208 10.7969 22.5816 10.939 22.7075 11.1098L22.7671 11.1977L22.8208 11.2895C22.9381 11.5075 23.0005 11.7518 23.0005 12.0004Z" fill="white"/>
<path d="M22 11C22.5523 11 23 11.4477 23 12C23 12.5523 22.5523 13 22 13L6 13C5.44772 13 5 12.5523 5 12C5 11.4477 5.44772 11 6 11L22 11Z" fill="white"/>
</svg>
