<svg width="32" height="32" viewBox="0 0 32 32" fill="none" xmlns="http://www.w3.org/2000/svg">
<path d="M2.70001 25.31L2.70001 6.69001C2.70001 5.6318 3.12069 4.61723 3.86896 3.86896C4.61723 3.12069 5.6318 2.70001 6.69001 2.70001L23.315 2.70001C24.0496 2.70001 24.645 3.29548 24.645 4.03001C24.645 4.76454 24.0496 5.36001 23.315 5.36001L6.69001 5.36001C6.33727 5.36001 5.99909 5.50023 5.74966 5.74966C5.50023 5.99909 5.36001 6.33727 5.36001 6.69001L5.36001 25.31C5.36001 25.6627 5.50023 26.0009 5.74966 26.2503C5.99909 26.4998 6.33727 26.64 6.69001 26.64L25.31 26.64C25.6627 26.64 26.0009 26.4998 26.2503 26.2503C26.4998 26.0009 26.64 25.6627 26.64 25.31L26.64 14.005C26.64 13.2705 27.2355 12.675 27.97 12.675C28.7046 12.675 29.3 13.2705 29.3 14.005L29.3 25.31C29.3 26.3683 28.8793 27.3828 28.1311 28.1311C27.3828 28.8793 26.3683 29.3 25.31 29.3L6.69001 29.3C5.6318 29.3 4.61723 28.8793 3.86896 28.1311C3.12069 27.3828 2.70001 26.3682 2.70001 25.31Z" fill="#636AE8"/>
<path d="M28.476 4.31874C28.9983 3.89268 29.7684 3.92272 30.2553 4.40966C30.7423 4.8966 30.7724 5.66667 30.3463 6.18906L30.2553 6.29036L16.9553 19.5903C16.4684 20.0772 15.6983 20.1073 15.176 19.6813L15.0747 19.5903L11.0847 15.6003L10.9937 15.4991C10.5677 14.9767 10.5977 14.2066 11.0847 13.7197C11.5716 13.2327 12.3417 13.2027 12.864 13.6287L12.9654 13.7197L16.015 16.7693L28.3747 4.40966L28.476 4.31874Z" fill="#636AE8"/>
</svg>
